<svg xmlns="http://www.w3.org/2000/svg" width="1261" height="1102" viewBox="0 0 1261 1102" version="1.1"><path d="M 113 501.122 C 113 811.479, 113.250 889.048, 114.250 888.261 C 119.400 884.206, 1047.938 116.364, 1049.472 114.892 C 1051.407 113.036, 1042.571 113, 582.222 113 L 113 113 113 501.122 M 679.648 600.609 L 211.795 987.500 679.563 987.751 C 936.836 987.889, 1147.482 987.851, 1147.667 987.666 C 1147.852 987.482, 1147.889 813.268, 1147.751 600.525 L 1147.500 213.719 679.648 600.609" stroke="none" fill="#548434" fill-rule="evenodd"/><path d="M 0 551.001 L 0 1102.002 630.750 1101.751 L 1261.500 1101.500 1261.751 550.750 L 1262.002 0 631.001 0 L 0 0 0 551.001 M 0.496 551.500 C 0.496 854.550, 0.611 978.674, 0.750 827.332 C 0.889 675.990, 0.889 428.040, 0.750 276.332 C 0.611 124.624, 0.496 248.450, 0.496 551.500 M 113 501.122 C 113 811.479, 113.250 889.048, 114.250 888.261 C 119.400 884.206, 1047.938 116.364, 1049.472 114.892 C 1051.407 113.036, 1042.571 113, 582.222 113 L 113 113 113 501.122 M 679.648 600.609 L 211.795 987.500 679.563 987.751 C 936.836 987.889, 1147.482 987.851, 1147.667 987.666 C 1147.852 987.482, 1147.889 813.268, 1147.751 600.525 L 1147.500 213.719 679.648 600.609" stroke="none" fill="#fbe39b" fill-rule="evenodd"/></svg>